Coordinates
nRows=203
nColumns=2
inDegrees=yes
endheader
time	ankle_angle_r	
2.18736	 18.844611	
2.24986	 18.788927	
2.31235	 18.817772	
2.37485	 18.825608	
2.43734	 18.823321	
2.49984	 18.888296	
2.56234	 18.945916	
2.62483	 18.960272	
2.68733	 18.952072	
2.74982	 18.898001	
2.81232	 18.817517	
2.87482	 18.766438	
2.93731	 18.800415	
2.99981	 18.890747	
3.0623	 18.929726	
3.1248	 18.905574	
3.1873	 18.855399	
3.24979	 18.825372	
3.31229	 18.837717	
3.37478	 18.824983	
3.43728	 18.838941	
3.49978	 18.900579	
3.56227	 18.890181	
3.62477	 18.892539	
3.68726	 18.922746	
3.74976	 18.844954	
3.81226	 18.773768	
3.87475	 18.787791	
3.93725	 18.820629	
3.99974	 18.865795	
4.06224	 18.874518	
4.12474	 18.847477	
4.18723	 18.828408	
4.24973	 18.794999	
4.31222	 18.782214	
4.37472	 18.789424	
4.43722	 18.777043	
4.49971	 18.808950	
4.56221	 18.855175	
4.6247	 18.846047	
4.6872	 18.838319	
4.7497	 18.821991	
4.81219	 18.788328	
4.87469	 18.776944	
4.93718	 18.755308	
4.99968	 18.771326	
5.06218	 18.833373	
5.12467	 18.844301	
5.18717	 18.841549	
5.24966	 18.830630	
5.31216	 18.785072	
5.37466	 18.777823	
5.43715	 18.784367	
5.49965	 18.790290	
5.56214	 18.825571	
5.62464	 18.838266	
5.68714	 18.837495	
5.74963	 18.815919	
5.81213	 18.758088	
5.87462	 18.751438	
5.93712	 18.780163	
5.99962	 18.804860	
6.06211	 18.845711	
6.12461	 18.861899	
6.1871	 18.873297	
6.2496	 18.879129	
6.3121	 18.825594	
6.37459	 18.785153	
6.43709	 18.792976	
6.49958	 18.821067	
6.56208	 18.873368	
6.62458	 18.890055	
6.68707	 18.881422	
6.74957	 18.891055	
6.81206	 18.845712	
6.87456	 18.788139	
6.93706	 18.802442	
6.99955	 18.814005	
7.06205	 18.807335	
7.12454	 18.813316	
7.18704	 18.817629	
7.24954	 18.840086	
7.31203	 18.833998	
7.37453	 18.787075	
7.43702	 18.770122	
7.49952	 18.759939	
7.56202	 18.778504	
7.62451	 18.831328	
7.68701	 18.839310	
7.7495	 18.856065	
7.812	 18.858262	
7.8745	 18.792232	
7.93699	 18.775424	
7.99949	 18.786737	
8.06198	 18.789768	
8.12448	 18.837432	
8.18698	 18.856682	
8.24947	 18.843401	
8.31197	 18.823898	
8.37446	 18.780259	
8.43696	 18.775572	
8.49946	 18.784489	
8.56195	 18.784886	
8.62445	 18.824644	
8.68694	 18.849640	
8.74944	 18.852435	
8.81194	 18.842887	
8.87443	 18.783275	
8.93693	 18.751007	
8.99942	 18.772252	
9.06192	 18.785238	
9.12442	 18.819762	
9.18691	 18.854198	
9.24941	 18.842685	
9.3119	 18.841534	
9.3744	 18.838096	
9.4369	 18.812325	
9.49939	 18.801855	
9.56189	 18.791206	
9.62438	 18.827493	
9.68688	 18.911830	
9.74938	 18.965820	
9.81187	 19.005460	
9.87437	 18.950306	
9.93686	 18.809355	
9.99936	 18.771584	
10.0619	 18.782531	
10.1244	 18.788060	
10.1868	 18.860369	
10.2493	 18.922540	
10.3118	 18.920369	
10.3743	 18.876150	
10.4368	 18.845261	
10.4993	 18.856786	
10.5618	 18.838973	
10.6243	 18.829590	
10.6868	 18.859854	
10.7493	 18.858654	
10.8118	 18.863095	
10.8743	 18.863342	
10.9368	 18.821700	
10.9993	 18.818977	
11.0618	 18.829266	
11.1243	 18.814575	
11.1868	 18.853707	
11.2493	 18.914385	
11.3118	 18.928187	
11.3743	 18.895478	
11.4368	 18.838796	
11.4993	 18.821700	
11.5618	 18.822968	
11.6243	 18.813607	
11.6868	 18.844272	
11.7492	 18.870431	
11.8117	 18.869326	
11.8742	 18.884528	
11.9367	 18.851822	
11.9992	 18.799290	
12.0617	 18.829138	
12.1242	 18.856860	
12.1867	 18.853071	
12.2492	 18.873248	
12.3117	 18.890897	
12.3742	 18.895946	
12.4367	 18.853706	
12.4992	 18.805287	
12.5617	 18.813378	
12.6242	 18.808349	
12.6867	 18.830264	
12.7492	 18.892344	
12.8117	 18.880313	
12.8742	 18.855429	
12.9367	 18.869987	
12.9992	 18.848681	
13.0617	 18.807651	
13.1242	 18.776608	
13.1867	 18.791783	
13.2492	 18.864823	
13.3116	 18.893496	
13.3741	 18.878119	
13.4366	 18.842269	
13.4991	 18.778875	
13.5616	 18.793969	
13.6241	 18.838007	
13.6866	 18.822258	
13.7491	 18.839460	
13.8116	 18.869832	
13.8741	 18.861650	
13.9366	 18.836475	
13.9991	 18.790872	
14.0616	 18.775277	
14.1241	 18.784267	
14.1866	 18.784500	
14.2491	 18.817186	
14.3116	 18.847322	
14.3741	 18.853743	
14.4366	 18.860886	
14.4991	 18.817351	
14.5616	 18.767129	
14.6241	 18.780718	
14.6866	 18.773190	
14.7491	 18.774901	
14.8116	 18.905771	
